<?xml version="1.0" encoding="UTF-8" standalone="no"?>
<svg width="31px" height="30px" viewBox="0 0 31 30" version="1.1" xmlns="http://www.w3.org/2000/svg" xmlns:xlink="http://www.w3.org/1999/xlink" xmlns:sketch="http://www.bohemiancoding.com/sketch/ns">
    <!-- Generator: Sketch 3.3 (11970) - http://www.bohemiancoding.com/sketch -->
    <title>github-grey</title>
    <desc>Created with Sketch.</desc>
    <defs></defs>
    <g id="Page-1" stroke="none" stroke-width="1" fill="none" fill-rule="evenodd" sketch:type="MSPage">
        <g id="github-grey" sketch:type="MSLayerGroup" transform="translate(-1.000000, -1.000000)">
            <path d="M0.5,0 L32.5,0 L32.5,32 L0.5,32 L0.5,0 Z" id="Shape" sketch:type="MSShapeGroup"></path>
            <path d="M16.4986187,1.5 C8.21659658,1.5 1.5,8.15610973 1.5,16.3674109 C1.5,22.9359042 5.79755364,28.5077607 11.7581417,30.4736541 C12.5086252,30.6105548 12.7821142,30.1514812 12.7821142,29.7572074 C12.7821142,29.4049163 12.7692225,28.4694285 12.7618558,27.2291086 C8.5895362,28.1271769 7.70921452,25.2358351 7.70921452,25.2358351 C7.02687314,23.5181883 6.04341754,23.0609401 6.04341754,23.0609401 C4.68149728,22.1391424 6.14655146,22.1573958 6.14655146,22.1573958 C7.65212253,22.262353 8.44404371,23.6897704 8.44404371,23.6897704 C9.78202216,25.9614086 11.9552012,25.3051981 12.8097394,24.9246143 C12.9460235,23.9644844 13.3336966,23.3091866 13.7618865,22.9377295 C10.4312134,22.5626217 6.92926425,21.2867076 6.92926425,15.5898152 C6.92926425,13.9670861 7.51399675,12.6391498 8.47351054,11.6005301 C8.31880966,11.2245097 7.8040609,9.71221381 8.62084472,7.66600539 C8.62084472,7.66600539 9.87963105,7.26625548 12.7452807,9.19016599 C13.94145,8.85977908 15.225099,8.6954983 16.5004604,8.6891096 C17.774901,8.6954983 19.0576291,8.85977908 20.2556401,9.19016599 C23.1194481,7.26625548 24.3763928,7.66600539 24.3763928,7.66600539 C25.1950183,9.71221381 24.6802695,11.2245097 24.5264895,11.6005301 C25.4878449,12.6391498 26.0679732,13.9670861 26.0679732,15.5898152 C26.0679732,21.3013104 22.5604991,22.5580584 19.2196967,22.9258648 C19.7574665,23.3849383 20.2372234,24.2921333 20.2372234,25.6793932 C20.2372234,27.6662781 20.2188066,29.269841 20.2188066,29.7572074 C20.2188066,30.1551319 20.4895331,30.6178561 21.2501458,30.4727414 C27.2061297,28.5022847 31.5,22.9340788 31.5,16.3674109 C31.5,8.15610973 24.7834034,1.5 16.4986187,1.5" id="github" fill="#90A4AE" sketch:type="MSShapeGroup"></path>
        </g>
    </g>
</svg>