<svg viewBox="0 0 76 76" xmlns="http://www.w3.org/2000/svg"><g fill="none" fill-rule="evenodd" transform="translate(2 2)"><circle stroke="#b0bec5" stroke-width="4" cx="36" cy="36" r="36"/><path d="m27.481 20.828c2.419-1.677 5.354-2.661 8.519-2.661 7.28 0 13.35 5.19 14.71 12.07 5.18.37 9.29 4.65 9.29 9.93 0 3.574-1.878 6.712-4.7 8.48l-27.819-27.819m26.02 31.672l-2.5 2.5-1.414-1.414-3.418-3.418h-22.16c-6.63 0-12-5.37-12-12 0-6.05 4.476-11.04 10.285-11.878l-3.404-3.404-1.414-1.414 2.828-2.828 1.414 1.414 1.086 1.086-.328.328 1.414 1.414 29.615 29.615" fill="#ff6e40"/></g></svg>