<svg viewBox="0 0 76 76" xmlns="http://www.w3.org/2000/svg"><g fill="none" fill-rule="evenodd" transform="translate(2 2)"><circle stroke="#b0bec5" stroke-width="4" fill="#fff" cx="36" cy="36" r="36"/><path d="m44.563 28v-3.429c0-4.731-4.06-8.571-9.06-8.571-5 0-9.06 3.84-9.06 8.571v3.429h-1.813c-2 0-3.625 1.534-3.625 3.429v17.14c0 1.894 1.622 3.429 3.625 3.429h21.75c2 0 3.625-1.534 3.625-3.429v-17.14c0-1.894-1.622-3.429-3.625-3.429h-1.813m-8.764 16.16c-2.11 0-3.819-1.706-3.819-3.812 0-2.106 1.709-3.812 3.819-3.812 2.11 0 3.819 1.706 3.819 3.812 0 2.106-1.709 3.812-3.819 3.812m5.728-15.247h-11.457v-3.737c0-3.195 2.569-5.792 5.728-5.792 3.16 0 5.728 2.597 5.728 5.792v3.737" fill="#ff6e40"/></g></svg>