<svg xmlns="http://www.w3.org/2000/svg" width="32" height="32" viewBox="0 0 100 100"><path fill="#0097a7" d="M97.6,12.3c-3.2-5.5-8.8-8.7-15.1-8.7H15.3c-1.4,0-2.7,0.7-3.4,1.9c-0.7,1.2-0.7,2.7,0,3.9l8.2,14.2l-16.2,0 c-1.4,0-2.7,0.7-3.4,1.9c-0.7,1.2-0.7,2.7,0,3.9L34,87.7c3.2,5.5,8.8,8.8,15.1,8.8c6.3,0,12-3.3,15.1-8.8l33.3-57.9 C100.8,24.3,100.8,17.8,97.6,12.3z M90.9,25.9L57.6,83.8c-1.8,3-4.9,4.9-8.4,4.9c-3.5,0-6.7-1.8-8.4-4.9L10.6,31.3h14l18.1,31.4 c-0.6,1.1-0.9,2.3-0.9,3.6c0,4.1,3.3,7.4,7.4,7.4c4.1,0,7.4-3.3,7.4-7.4c0-1.3-0.3-2.5-0.9-3.6l16-27.9c4-0.1,7.2-3.4,7.2-7.4 c0-4.1-3.3-7.4-7.4-7.4c-2.7,0-5,1.4-6.4,3.6l-36.2,0l-7-12.2h60.5c3.5,0,6.6,1.8,8.4,4.8C92.7,19.2,92.7,22.8,90.9,25.9z M64.8,31.3L49.2,58.5L33.5,31.3L64.8,31.3z"/></svg>
